Coordinates
version=1
nRows=11
nColumns=42
inDegrees=yes

Units are S.I. units (second, meters, Newtons, ...)
If the header above contains a line with 'inDegrees', this indicates whether rotational values are in degrees (yes) or radians (no).

endheader
time	pelvis_tilt	pelvis_list	pelvis_rotation	pelvis_tx	pelvis_ty	pelvis_tz	hip_flexion_r	hip_adduction_r	hip_rotation_r	knee_angle_r	knee_adduction_r	knee_angle_r_beta	ankle_angle_r	subtalar_angle_r	mtp_angle_r	hip_flexion_l	hip_adduction_l	hip_rotation_l	knee_angle_l	knee_adduction_l	knee_angle_l_beta	ankle_angle_l	subtalar_angle_l	mtp_angle_l	lumbar_extension	lumbar_bending	lumbar_rotation	arm_flex_r	arm_add_r	arm_rot_r	elbow_flex_r	pro_sup_r	wrist_flex_r	wrist_dev_r	arm_flex_l	arm_add_l	arm_rot_l	elbow_flex_l	pro_sup_l	wrist_flex_l	wrist_dev_l
      0.92000000	      8.33567089	     -2.90369269	      3.13875873	     -1.12643145	      0.88855404	      0.20206248	     16.91309050	     -0.53221861	    -18.23024028	     39.85688965	      4.96147096	      0.69563395	     15.96006414	     14.84557487	     -7.69923397	     -4.34282695	     -8.09609861	    -15.34479523	     58.52968556	     -4.86898163	      1.02153572	     -1.27422054	      6.69487887	     -7.69923397	    -18.80490252	      5.74484088	     -3.46935936	     -0.72623541	     -7.55794319	    -25.05258604	     27.66713434	     90.00000001	      0.00000000	      0.00000000	     -3.71307961	     -6.54277670	    -26.41679676	     35.69479092	     90.00000001	      0.00000000	      0.00000000
      0.93000000	      8.25590134	     -2.88863792	      3.14962413	     -1.11847702	      0.88929688	      0.20304080	     16.17999665	     -0.64029567	    -18.61503726	     39.64060550	      5.16665060	      0.69185908	     16.50233901	     15.90275188	     -7.68901600	     -2.69974979	     -8.08740165	    -13.93628376	     61.11463969	     -4.48486874	      1.06665168	     -3.26366002	      1.95520177	     -7.68901600	    -18.77190523	      5.76535117	     -3.43156903	     -0.40321630	     -7.67580996	    -24.36623293	     28.41364946	     90.00000001	      0.00000000	      0.00000000	     -3.67768120	     -6.64483144	    -26.66565063	     34.74049038	     90.00000001	      0.00000000	      0.00000000
      0.94000000	      8.13087185	     -2.99689739	      3.14489555	     -1.11053201	      0.88971710	      0.20401728	     15.51978739	     -0.53911373	    -18.79592854	     39.37912385	      5.39206298	      0.68729537	     16.83617027	     16.18921439	     -7.68534971	     -0.88453196	     -8.31675968	    -13.75672475	     63.62668338	     -5.05437599	      1.11049512	     -3.65312496	      0.80563426	     -7.68534971	    -18.67412429	      5.92774032	     -3.38284227	      0.07724259	     -7.78461911	    -24.12988427	     28.91462794	     90.00000001	      0.00000000	      0.00000000	     -3.98383638	     -6.70056763	    -26.68806751	     34.45837187	     90.00000001	      0.00000000	      0.00000000
      0.95000000	      7.95915189	     -2.90163691	      3.16208224	     -1.10300426	      0.89004419	      0.20475377	     15.07412909	     -0.72518812	    -19.38948749	     39.39767081	      5.27945434	      0.68761907	     17.51952002	     17.77774564	     -7.67234971	      1.06688601	     -8.02553912	    -11.97148652	     66.15892457	     -4.33542228	      1.15469106	     -5.41002583	     -5.22952950	     -7.67234971	    -18.61391073	      5.86423439	     -3.25026569	      0.30614984	     -8.00634060	    -23.01384557	     29.75180887	     90.00000001	      0.00000000	      0.00000000	     -3.72919873	     -6.84031116	    -26.89625619	     33.42113472	     90.00000001	      0.00000000	      0.00000000
      0.96000000	      7.77883986	     -2.87844162	      3.18897237	     -1.09551797	      0.89017596	      0.20539195	     14.64526374	     -0.82739853	    -19.76942197	     39.39298744	      5.31576128	      0.68753733	     18.08426319	     18.67341259	     -7.66162753	      3.08972423	     -7.85109560	    -11.10745270	     68.50529786	     -4.35907095	      1.19564300	     -5.74895738	     -8.63474338	     -7.66162753	    -18.53048164	      5.89800575	     -3.18498384	      0.67010541	     -8.22078160	    -22.13192371	     30.49268763	     90.00000001	      0.00000000	      0.00000000	     -3.73246032	     -6.89131336	    -27.01319696	     32.84405686	     90.00000001	      0.00000000	      0.00000000
      0.97000000	      7.60673972	     -2.82392311	      3.21748496	     -1.08812112	      0.89021336	      0.20590611	     14.25162615	     -0.96093393	    -20.04468954	     39.45147158	      5.37420617	      0.68855807	     18.64835453	     19.36289663	     -7.65357938	      5.11851583	     -7.59731323	    -10.45672296	     70.64836958	     -4.51198676	      1.23304666	     -5.42939295	    -11.48445307	     -7.65357938	    -18.47769981	      5.89970155	     -3.10934578	      1.07593102	     -8.42627558	    -21.41967964	     31.20468133	     90.00000001	      0.00000000	      0.00000000	     -3.75250842	     -6.96402826	    -27.06149105	     32.38987585	     90.00000001	      0.00000000	      0.00000000
      0.98000000	      7.46098327	     -2.84206990	      3.25699141	     -1.08076064	      0.89024901	      0.20635939	     13.80075946	     -0.95858183	    -20.10826388	     39.39563508	      5.50862659	      0.68758354	     18.92486670	     19.51427234	     -7.65086444	      7.15026826	     -7.46735201	    -10.45792830	     72.54564006	     -5.18645697	      1.26616028	     -4.27297755	    -12.63052767	     -7.65086444	    -18.46462776	      6.00325393	     -3.06402631	      1.63508099	     -8.58872101	    -21.17255384	     31.71539988	     90.00000001	      0.00000000	      0.00000000	     -3.95351461	     -6.96822114	    -27.04462058	     32.26178994	     90.00000001	      0.00000000	      0.00000000
      0.99000000	      7.41528186	     -2.78168788	      3.35015515	     -1.07356289	      0.89037417	      0.20667609	     13.25450170	     -1.08002403	    -20.13747290	     39.41361050	      5.71592564	      0.68789727	     19.24183123	     19.65381898	     -7.64874667	      9.06612807	     -7.19245047	    -10.33561231	     74.18117571	     -5.73917296	      1.29470576	     -3.13704977	    -13.71054251	     -7.64874667	    -18.57774799	      6.01844217	     -2.97666110	      2.22345054	     -8.72213996	    -20.92422967	     32.22386262	     90.00000001	      0.00000000	      0.00000000	     -3.94960231	     -7.01915985	    -27.00893250	     32.19757830	     90.00000001	      0.00000000	      0.00000000
      1.00000000	      7.22441907	     -2.62313453	      3.31587130	     -1.06654044	      0.89027130	      0.20695632	     13.01586476	     -1.24985080	    -20.09216864	     39.60416601	      5.70217483	      0.69122309	     20.15517826	     20.38229374	     -7.64384260	     11.06629470	     -6.67321908	     -9.54220566	     75.60583089	     -5.48276858	      1.31957068	     -1.90249535	    -16.39303912	     -7.64384260	    -18.56975561	      5.87935948	     -2.78401468	      2.54375636	     -9.04021209	    -19.99500273	     33.02742756	     90.00000001	      0.00000000	      0.00000000	     -3.86724567	     -7.01447941	    -27.00246414	     31.74992364	     90.00000001	      0.00000000	      0.00000000
      1.01000000	      7.16129546	     -2.56877404	      3.38733465	     -1.05946987	      0.89042664	      0.20715719	     12.47734007	     -1.26500128	    -19.99024955	     39.48703639	      5.82632516	      0.68917880	     20.39969766	     20.45930283	     -7.64155891	     12.95838108	     -6.34960573	     -9.52369140	     76.67971278	     -5.98177243	      1.33831346	     -0.58484664	    -16.95183279	     -7.64155891	    -18.68251086	      5.89998105	     -2.79673897	      3.17870989	     -9.20204941	    -19.62602087	     33.55801321	     90.00000001	      0.00000000	      0.00000000	     -4.03014306	     -6.99305884	    -26.98222258	     31.71472942	     90.00000001	      0.00000000	      0.00000000
      1.02000000	      7.15696779	     -2.46172533	      3.43035257	     -1.05250750	      0.89064976	      0.20728908	     11.89956379	     -1.34360467	    -19.82095861	     39.42019757	      5.97154473	      0.68801224	     20.73934327	     20.48654857	     -7.63963805	     14.72296451	     -5.88598981	     -9.43807322	     77.44288412	     -6.37360516	      1.35163331	      0.73244116	    -17.31459824	     -7.63963805	    -18.88145142	      5.86352763	     -2.67859189	      3.80139070	     -9.36756974	    -19.28006719	     34.04192498	     90.00000001	      0.00000000	      0.00000000	     -4.04570750	     -6.97090872	    -26.94507324	     31.77769590	     90.00000001	      0.00000000	      0.00000000
